<?xml version="1.0" ?><!DOCTYPE svg  PUBLIC '-//W3C//DTD SVG 1.1//EN'  'http://www.w3.org/Graphics/SVG/1.1/DTD/svg11.dtd'><svg id="Capa_1" style="enable-background:new 0 0 430.1 430.1;" version="1.1" viewBox="0 0 430.1 430.1" xml:space="preserve" xmlns="http://www.w3.org/2000/svg" xmlns:xlink="http://www.w3.org/1999/xlink"><g><g><path d="M413.2,131.3c-16.3-38.6-43.6-71.4-77.9-94.6C318.2,25.1,299.2,15.9,279,9.7C258.8,3.4,237.3,0,215.1,0     c-29.7,0-58,6-83.7,16.9C92.7,33.2,59.9,60.5,36.7,94.8C25.1,112,16,130.9,9.7,151.1C3.4,171.3,0,192.8,0,215.1     c0,29.6,6,58,16.9,83.7c16.3,38.6,43.6,71.4,77.9,94.6c17.2,11.6,36.1,20.8,56.3,27.1c20.2,6.3,41.7,9.7,63.9,9.7     c29.6,0,58-6,83.7-16.9c38.6-16.3,71.4-43.6,94.6-77.9c11.6-17.2,20.8-36.1,27.1-56.3c6.3-20.2,9.7-41.7,9.7-63.9     C430.1,185.4,424.1,157.1,413.2,131.3z M386.4,287.4c-14.1,33.4-37.7,61.8-67.4,81.8c-14.8,10-31.2,18-48.7,23.4     c-17.5,5.4-36,8.3-55.3,8.4h0V215.3h-186c0-0.1,0-0.1,0-0.2c0-25.7,5.2-50.1,14.6-72.4c14.1-33.4,37.7-61.8,67.4-81.8     c14.8-10,31.2-18,48.7-23.4c17.5-5.4,36-8.4,55.3-8.4v186h186C401,240.8,395.8,265.2,386.4,287.4z" id="Delicious"/></g></g></svg>